<svg class="logo" version="1.1" id="Layer_1" xmlns="http://www.w3.org/2000/svg" xmlns:xlink="http://www.w3.org/1999/xlink" x="0px" y="0px"
	 width="480px" height="303.258px" viewBox="0 0 480 303.258" enable-background="new 0 0 480 303.258" xml:space="preserve">
<g>
	<path fill="none" d="M358.651,227.125c-20.451-9.436-36.533-7.686-47.155,0.728c-1.432,0.983-2.73,2.219-4.323,3.411
		c-6.052,4.508-26.582-3.677-51.225-16.431c44.824-15.578,97.238-29.785,105.053-33.183c13.928-6.109,20.013-11.936,14.435-24.798
		c-0.082-0.2-0.159-0.376-0.245-0.547c-0.085-0.196-0.149-0.37-0.229-0.561c-5.593-12.89-14.057-12.385-27.999-6.32
		c-8.323,3.622-60.076,35.91-103.978,58.5c-42.884-23.457-92.276-55.76-100.375-59.491c-13.804-6.381-22.247-7.057-28.114,5.693
		c-0.084,0.2-0.167,0.378-0.24,0.561c-0.092,0.161-0.183,0.345-0.254,0.534c-5.88,12.728,0.087,18.703,13.875,25.084
		c7.578,3.499,57.637,18.28,101.46,34.434c-23.619,11.395-42.97,18.368-48.69,13.911c-5.927-4.618-7.785-9.796-27.012-1.44
		c-19.211,8.37-86.293,42.562-85.58,44.195c0.105,0.274,0.428,1.021,0.887,2.104c10.86-4.813,75.713-33.729,77.408-29.808
		c1.715,3.903-63.628,31.672-74.553,36.345c0.524,1.217,1.076,2.483,1.628,3.715c10.857-4.797,75.694-33.702,77.415-29.801
		c1.684,3.888-63.638,31.688-74.572,36.345c0.656,1.52,1.218,2.804,1.621,3.723c10.85-4.813,75.693-33.717,77.414-29.799
		c1.694,3.912-63.647,31.675-74.572,36.348c0.492,1.073,0.814,1.823,0.914,2.087c0.707,1.634,71.446-24.169,90.698-32.532
		c19.204-8.378,16.674-13.267,17.331-20.749c0.714-8.117,23.739-19.004,52.734-29.704c30.259,11.749,54.741,23.685,55.294,32.12
		c0.114,1.988,0.032,3.756,0.18,5.509c0.497,13.537,9.621,26.909,30.039,36.362c28.726,13.251,68.938,13.729,77.407-4.642
		C413.8,270.656,387.354,240.388,358.651,227.125z"/>
	<path fill="none" d="M135.718,95.476h30.247L99.815,2.892H66.148L0,95.476h28.932l12.494-17.887h81.799L135.718,95.476z
		 M54.707,58.521l27.617-39.322l27.486,39.322H54.707z"/>
	<path fill="none" d="M243.549,98.895c27.617,0,47.213-4.209,58.522-9.337V67.463c-13.414,6.181-34.587,10.916-58.785,10.916
		c-20.121,0-32.219-4.209-37.611-9.601c-4.339-4.339-7.102-9.73-7.102-19.332c0-9.469,2.63-14.861,7.102-19.331
		c5.392-5.392,17.491-9.601,37.611-9.601c24.198,0,45.371,5.26,58.785,11.835V9.337C290.762,4.338,271.166,0,243.549,0
		c-32.876,0-50.762,7.626-59.573,16.306c-8.022,8.021-12.099,19.201-12.099,33.141s4.077,25.119,12.099,33.141
		C192.787,91.267,210.672,98.895,243.549,98.895z"/>
	<path fill="none" d="M469.742,70.225c3.157-6.443,4.997-13.675,4.997-21.436c0-12.493-3.682-23.541-12.361-32.22
		C453.435,7.626,436.996,0,398.069,0s-55.365,7.626-64.308,16.569c-8.68,8.679-12.361,19.727-12.361,32.877
		c0,13.152,3.682,24.198,12.361,32.877c8.942,8.943,25.381,16.572,64.308,16.572c32.878,0,49.711-5.392,59.574-12.495L480,96.791
		v-21.7L469.742,70.225z M446.728,59.309l-39.716-18.935v22.354l25.119,11.837c-6.971,2.63-17.49,4.471-34.062,4.471
		c-26.302,0-37.611-4.603-43.003-9.995c-3.946-3.945-6.971-9.733-6.971-19.595s3.024-15.65,6.971-19.595
		c5.392-5.392,16.701-9.994,43.003-9.994c26.303,0,37.612,4.603,43.004,9.994c3.944,3.945,6.97,9.733,6.97,18.938
		C448.043,52.998,447.518,56.417,446.728,59.309z"/>
</g>
</svg>
